<?xml version="1.0" encoding="UTF-8"?>
<svg version="1.1" xmlns="http://www.w3.org/2000/svg" width="500" height="500">
<path d="M0 0 C0.65419922 0.28343262 1.30839844 0.56686523 1.98242188 0.85888672 C6.66249984 2.88893838 11.3335294 4.93887899 16 7 C16 7.66 16 8.32 16 9 C16.56203125 9.11730469 17.1240625 9.23460938 17.703125 9.35546875 C51.02561853 18.70616847 80.54456644 58.37916102 96.6875 86.7890625 C106.46316904 104.39327962 113.00115703 123.28853165 117 143 C117.32097656 144.546875 117.32097656 144.546875 117.6484375 146.125 C122.30897088 170.98117802 121.84293002 199.99865899 114.76953125 224.28515625 C113.99768443 227.00816913 113.37401842 229.73977126 112.75 232.5 C106.32179612 258.1134103 93.00376709 280.27380983 77 301 C76.32324219 301.90621094 75.64648438 302.81242187 74.94921875 303.74609375 C74.01529297 304.98552734 74.01529297 304.98552734 73.0625 306.25 C72.24458984 307.34054687 72.24458984 307.34054687 71.41015625 308.453125 C70.94480469 308.96359375 70.47945313 309.4740625 70 310 C69.34 310 68.68 310 68 310 C68 310.66 68 311.32 68 312 C67.34 312 66.68 312 66 312 C65.731875 312.639375 65.46375 313.27875 65.1875 313.9375 C64 316 64 316 61 317 C61 317.66 61 318.32 61 319 C60.34 319 59.68 319 59 319 C59 319.66 59 320.32 59 321 C58.34 321 57.68 321 57 321 C57 321.66 57 322.32 57 323 C52.52941176 327 52.52941176 327 50 327 C50 327.66 50 328.32 50 329 C47.57447346 331.23921421 44.80752874 333.08120684 42.125 335 C41.31506592 335.58088379 40.50513184 336.16176758 39.6706543 336.76025391 C31.46971806 342.53506993 22.91945445 347.43215818 14 352 C13.37061523 352.32693848 12.74123047 352.65387695 12.09277344 352.99072266 C-33.68410049 376.51802099 -86.75651279 377.21796294 -135.08203125 361.78295898 C-142.83178745 359.20221892 -149.83649397 355.90736693 -157 352 C-158.72629111 351.16072601 -160.45526361 350.32693344 -162.1875 349.5 C-173.6938722 343.70019165 -183.84361881 335.85230197 -194 328 C-194.55316895 327.57364258 -195.10633789 327.14728516 -195.67626953 326.70800781 C-201.05220918 322.53558607 -205.95402894 318.30404996 -210.296875 313.0546875 C-212.91565773 309.89533035 -215.72125099 306.905127 -218.49609375 303.8828125 C-220 302 -220 302 -220 300 C-220.66 300 -221.32 300 -222 300 C-223.81851163 297.59642825 -225.51768709 295.1917996 -227.1875 292.6875 C-227.93277954 291.57991333 -227.93277954 291.57991333 -228.69311523 290.44995117 C-229.68704349 288.96850861 -230.67773996 287.48489218 -231.66503906 285.99902344 C-232.73544039 284.39616205 -233.8288794 282.80869561 -234.9296875 281.2265625 C-242.99254818 269.30587375 -249.47066759 255.50608888 -253.27734375 241.625 C-253.89346312 239.38698803 -254.61839347 237.32920382 -255.5 235.1875 C-268.95241242 200.41705698 -266.52797805 158.04966606 -256 123 C-255.77296387 122.23816406 -255.54592773 121.47632813 -255.31201172 120.69140625 C-251.92973064 109.50478048 -247.56395725 99.26737012 -242 89 C-241.39542969 87.85273438 -240.79085937 86.70546875 -240.16796875 85.5234375 C-231.29162668 69.26571624 -219.99047105 55.13425578 -207 42 C-206.42830078 41.41001221 -205.85660156 40.82002441 -205.26757812 40.2121582 C-201.47702759 36.33904434 -197.5467566 32.86120554 -193.25 29.5625 C-192.64655762 29.09440918 -192.04311523 28.62631836 -191.42138672 28.14404297 C-169.21671747 11 -169.21671747 11 -164 11 C-164 10.34 -164 9.68 -164 9 C-112.8410685 -16.21919159 -53.47046678 -23.22530052 0 0 Z M-150 66 C-150.78246094 66.53496094 -151.56492187 67.06992188 -152.37109375 67.62109375 C-152.90863281 68.07613281 -153.44617188 68.53117187 -154 69 C-154 69.66 -154 70.32 -154 71 C-154.66 71 -155.32 71 -156 71 C-156 71.66 -156 72.32 -156 73 C-156.66 73 -157.32 73 -158 73 C-168.74284945 85.71823487 -175.04582294 102.67952093 -174.25390625 119.4375 C-172.38593063 138.28968474 -165.49563596 154.43235503 -151 167 C-143.97296433 172.64896222 -135.28460931 179 -126 179 C-126 179.99 -126 180.98 -126 182 C-126.72445312 182.26039063 -127.44890625 182.52078125 -128.1953125 182.7890625 C-137.9222995 186.98873655 -143.64627197 194.62273962 -148 204 C-149.35989112 207.43391501 -150.6052083 210.87543172 -151.76171875 214.3828125 C-152.71794642 217.17608324 -153.73715447 219.88366754 -154.84375 222.6171875 C-157.30279572 228.69517373 -159.55372687 234.84535726 -161.8125 241 C-165.00385642 249.66788163 -168.26243075 258.30012787 -171.65844727 266.88964844 C-173.96369332 272.7761478 -175.9572619 278.73780179 -177.859375 284.765625 C-179 288 -179 288 -180.640625 291.171875 C-182.2888111 294.07788252 -182.2888111 294.07788252 -182 298 C-165.83 298 -149.66 298 -133 298 C-131.11619325 293.60445092 -129.4632441 289.59957706 -128.0625 285.09375 C-127.72476563 284.01996094 -127.38703125 282.94617188 -127.0390625 281.83984375 C-126.69617188 280.73769531 -126.35328125 279.63554687 -126 278.5 C-123.92885732 271.84275568 -121.78216138 265.39825227 -119 259 C-117.55049885 254.97668118 -116.18678438 250.92452234 -114.8125 246.875 C-99.8880601 203.46957545 -99.8880601 203.46957545 -91 198 C-76.74990758 192.29996303 -60.34781924 196 -45 196 C-44.67 229.66 -44.34 263.32 -44 298 C-27.5 298 -11 298 6 298 C6 217.15 6 136.3 6 53 C-71.09376101 44.81242012 -71.09376101 44.81242012 -150 66 Z " fill="#030303" transform="translate(322,71)"/>
<path d="M0 0 C0.88771088 0.00045822 1.77542175 0.00091644 2.69003296 0.00138855 C4.56078434 0.00439428 6.43153359 0.01222983 8.30224609 0.0246582 C11.11955977 0.04278297 13.93654059 0.04516828 16.75390625 0.04492188 C18.58594026 0.04984384 20.41797209 0.05567509 22.25 0.0625 C23.48201645 0.06416924 23.48201645 0.06416924 24.73892212 0.06587219 C32.06578006 0.12329811 39.16363116 0.7047683 46.5234375 1.23046875 C46.5234375 23.01046875 46.5234375 44.79046875 46.5234375 67.23046875 C39.42019649 67.87621793 32.61222544 68.39570404 25.5234375 68.35546875 C24.60280518 68.35063477 23.68217285 68.34580078 22.73364258 68.34082031 C19.66334021 68.31533005 16.59353197 68.27421422 13.5234375 68.23046875 C12.3689209 68.21790039 11.2144043 68.20533203 10.02490234 68.19238281 C6.41940713 68.14465371 2.81570086 68.06669532 -0.7890625 67.98046875 C-1.91505859 67.9664502 -3.04105469 67.95243164 -4.20117188 67.93798828 C-13.53639588 67.65726117 -20.95085464 65.40249548 -27.91015625 58.9921875 C-35.40376419 50.56421448 -36.97593102 40.68575435 -36.7890625 29.765625 C-36.03719944 21.26017419 -32.6357349 13.23941743 -26.4765625 7.23046875 C-18.36533851 1.33139676 -9.79349209 -0.08442972 0 0 Z " fill="#050505" transform="translate(231.4765625,160.76953125)"/>
<path d="M0 0 C0.33 0.99 0.66 1.98 1 3 C-3.82142857 8.22321429 -3.82142857 8.22321429 -8 9 C-7.04270084 7.87411986 -6.08412105 6.7493285 -5.125 5.625 C-4.59132813 4.99851562 -4.05765625 4.37203125 -3.5078125 3.7265625 C-2.38567993 2.44163349 -1.20628025 1.20628025 0 0 Z " fill="#525152" transform="translate(120,108)"/>
<path d="M0 0 C-1.49097658 3.7952131 -3.75700849 5.61042731 -7 8 C-4.18918919 0 -4.18918919 0 0 0 Z " fill="#5A5A5A" transform="translate(230,270)"/>
<path d="M0 0 C0.66 0.33 1.32 0.66 2 1 C-0.25 3.5625 -0.25 3.5625 -3 6 C-4.32 5.67 -5.64 5.34 -7 5 C-4.69 3.35 -2.38 1.7 0 0 Z " fill="#737272" transform="translate(150,85)"/>
</svg>
